<svg width="231" height="42" viewBox="0 0 231 42" fill="none" xmlns="http://www.w3.org/2000/svg">
<path d="M0 34.6562V3.69942C0 1.70671 1.6198 0.0869141 3.6125 0.0869141C5.18569 0.0869141 6.57825 1.10657 7.05603 2.60401L10.9832 14.9564C11.5017 16.5879 13.2439 17.4852 14.8695 16.9666C15.8251 16.6636 16.5767 15.912 16.8797 14.9564L20.8068 2.60401C21.2846 1.10657 22.6772 0.0869141 24.2504 0.0869141H34.5693C36.562 0.0869141 38.1818 1.70671 38.1818 3.69942C38.1818 5.2726 37.1622 6.66516 35.6647 7.14295L23.3123 11.0701C21.6808 11.5887 20.7835 13.3308 21.3021 14.9564C21.8207 16.5879 23.5628 17.4852 25.1885 16.9666C25.5847 16.8384 25.9459 16.6403 26.2606 16.3665L32.2212 11.274C33.7361 9.97468 36.0143 10.1553 37.3137 11.6702C37.9138 12.3694 38.2226 13.2784 38.176 14.199L37.6633 24.4946C37.5759 26.2018 36.125 27.5186 34.4178 27.4312C33.8002 27.4021 33.2059 27.1865 32.7165 26.8136L26.1149 21.861C24.7456 20.8355 22.8054 21.1152 21.7799 22.4786C21.5701 22.7583 21.4128 23.0671 21.3079 23.3992L17.3808 35.7516C16.903 37.2491 15.5105 38.2687 13.9373 38.2687H3.6125C1.6198 38.2687 0 36.6489 0 34.6562Z" fill="black"/>
<path d="M56.225 15.9669V2.32047H51.1406V0.229492H63.7525V2.32047H58.6681V15.9669H56.225Z" fill="black"/>
<path d="M65.2212 0.229492H67.3782V15.9669H65.2212V0.229492ZM72.6827 8.76949C72.6827 8.27059 72.602 7.83038 72.4406 7.44887C72.2938 7.06736 72.0517 6.77389 71.7142 6.56846C71.3914 6.36303 70.9586 6.26032 70.4156 6.26032C69.9461 6.26032 69.5205 6.32635 69.139 6.45841C68.7722 6.59047 68.4567 6.78123 68.1926 7.03068C67.9285 7.28013 67.723 7.58093 67.5763 7.9331C67.4442 8.27059 67.3782 8.6521 67.3782 9.07763H66.6299V6.15026H67.4222C67.7157 5.72473 68.1632 5.32855 68.7649 4.96171C69.3665 4.59487 70.1515 4.41145 71.12 4.41145C71.8243 4.41145 72.4553 4.55085 73.0128 4.82965C73.5704 5.09377 74.018 5.50463 74.3555 6.06222C74.693 6.60514 74.8617 7.30947 74.8617 8.17521V15.9669H72.6827V8.76949Z" fill="black"/>
<path d="M82.4137 16.297C81.2251 16.297 80.2126 16.0402 79.3762 15.5267C78.5545 15.0131 77.9309 14.3088 77.5054 13.4137C77.0798 12.5039 76.8671 11.4768 76.8671 10.3322C76.8671 9.45181 76.9918 8.6521 77.2412 7.9331C77.5054 7.19942 77.8722 6.56846 78.3417 6.04021C78.826 5.51197 79.4056 5.10844 80.0806 4.82965C80.7702 4.53618 81.5479 4.38944 82.4137 4.38944C83.5582 4.38944 84.5193 4.62422 85.297 5.09377C86.0894 5.56332 86.691 6.23097 87.1019 7.09671C87.5274 7.94777 87.7402 8.95291 87.7402 10.1121C87.7402 10.2589 87.7402 10.4129 87.7402 10.5743C87.7402 10.7211 87.7328 10.8385 87.7181 10.9265H77.9456V9.23171H85.4731C85.4731 8.7915 85.3997 8.38798 85.253 8.02114C85.1063 7.63963 84.8935 7.30947 84.6147 7.03068C84.3506 6.75188 84.0277 6.53911 83.6462 6.39238C83.2647 6.23097 82.8319 6.15026 82.3476 6.15026C81.7167 6.15026 81.1517 6.28966 80.6528 6.56846C80.1686 6.84726 79.7871 7.23611 79.5083 7.73501C79.2295 8.23391 79.0901 8.82085 79.0901 9.49583C79.0901 9.73061 79.0901 9.96538 79.0901 10.2002C79.0901 10.4203 79.0901 10.6257 79.0901 10.8164C79.0901 11.4621 79.2148 12.0637 79.4643 12.6213C79.7137 13.1789 80.0879 13.6411 80.5868 14.0079C81.0857 14.3601 81.7093 14.5362 82.4577 14.5362C83.118 14.5362 83.6462 14.4188 84.0424 14.184C84.4533 13.9492 84.7614 13.6778 84.9669 13.3696C85.187 13.0468 85.3337 12.7607 85.4071 12.5112H87.5861C87.3953 13.2302 87.0798 13.8759 86.6396 14.4481C86.1994 15.0204 85.6272 15.4753 84.9228 15.8128C84.2332 16.1356 83.3968 16.297 82.4137 16.297Z" fill="black"/>
<path d="M95.2768 15.9669V0.229492H101.836C103.582 0.229492 104.91 0.625678 105.82 1.41805C106.729 2.19575 107.184 3.31094 107.184 4.76362C107.184 5.42392 107.06 6.02554 106.81 6.56846C106.561 7.09671 106.216 7.53691 105.776 7.88908C105.335 8.24124 104.829 8.48336 104.257 8.61542V8.65944C104.859 8.77683 105.335 9.02628 105.688 9.40779C106.055 9.77463 106.326 10.2222 106.502 10.7504C106.678 11.2787 106.796 11.8289 106.854 12.4012C106.928 12.9735 106.979 13.509 107.008 14.0079C107.038 14.5068 107.074 14.925 107.118 15.2625C107.177 15.5853 107.272 15.7688 107.404 15.8128V15.9669H104.807C104.69 15.8495 104.616 15.622 104.587 15.2845C104.572 14.947 104.565 14.5435 104.565 14.074C104.565 13.6044 104.528 13.1275 104.455 12.6433C104.396 12.1444 104.279 11.6822 104.103 11.2567C103.927 10.8311 103.648 10.4863 103.267 10.2222C102.9 9.94337 102.393 9.80398 101.748 9.80398H97.6979V15.9669H95.2768ZM97.6979 2.32047V7.713H101.308C102.056 7.713 102.68 7.61028 103.178 7.40485C103.692 7.18475 104.081 6.86927 104.345 6.45841C104.609 6.04755 104.741 5.54131 104.741 4.9397C104.741 4.08863 104.477 3.443 103.949 3.00279C103.435 2.54791 102.57 2.32047 101.352 2.32047H97.6979Z" fill="black"/>
<path d="M114.612 16.297C113.424 16.297 112.411 16.0402 111.575 15.5267C110.753 15.0131 110.13 14.3088 109.704 13.4137C109.279 12.5039 109.066 11.4768 109.066 10.3322C109.066 9.45181 109.191 8.6521 109.44 7.9331C109.704 7.19942 110.071 6.56846 110.541 6.04021C111.025 5.51197 111.604 5.10844 112.279 4.82965C112.969 4.53618 113.747 4.38944 114.612 4.38944C115.757 4.38944 116.718 4.62422 117.496 5.09377C118.288 5.56332 118.89 6.23097 119.301 7.09671C119.726 7.94777 119.939 8.95291 119.939 10.1121C119.939 10.2589 119.939 10.4129 119.939 10.5743C119.939 10.7211 119.932 10.8385 119.917 10.9265H110.144V9.23171H117.672C117.672 8.7915 117.599 8.38798 117.452 8.02114C117.305 7.63963 117.092 7.30947 116.814 7.03068C116.549 6.75188 116.227 6.53911 115.845 6.39238C115.464 6.23097 115.031 6.15026 114.546 6.15026C113.916 6.15026 113.351 6.28966 112.852 6.56846C112.367 6.84726 111.986 7.23611 111.707 7.73501C111.428 8.23391 111.289 8.82085 111.289 9.49583C111.289 9.73061 111.289 9.96538 111.289 10.2002C111.289 10.4203 111.289 10.6257 111.289 10.8164C111.289 11.4621 111.414 12.0637 111.663 12.6213C111.913 13.1789 112.287 13.6411 112.786 14.0079C113.285 14.3601 113.908 14.5362 114.657 14.5362C115.317 14.5362 115.845 14.4188 116.241 14.184C116.652 13.9492 116.96 13.6778 117.166 13.3696C117.386 13.0468 117.533 12.7607 117.606 12.5112H119.785C119.594 13.2302 119.279 13.8759 118.838 14.4481C118.398 15.0204 117.826 15.4753 117.122 15.8128C116.432 16.1356 115.596 16.297 114.612 16.297Z" fill="black"/>
<path d="M126.716 9.18769C127.23 9.31975 127.736 9.45915 128.235 9.60588C128.748 9.75262 129.21 9.95805 129.621 10.2222C130.047 10.4863 130.384 10.8238 130.634 11.2346C130.883 11.6455 131.008 12.1591 131.008 12.7754C131.008 13.509 130.825 14.14 130.458 14.6683C130.106 15.1818 129.585 15.578 128.895 15.8568C128.205 16.1356 127.369 16.275 126.386 16.275C125.256 16.275 124.309 16.0989 123.546 15.7468C122.798 15.3946 122.226 14.9104 121.83 14.2941C121.448 13.6778 121.243 12.9881 121.213 12.2251H123.392C123.436 12.6653 123.554 13.0615 123.745 13.4137C123.95 13.7658 124.265 14.0446 124.691 14.2501C125.117 14.4408 125.674 14.5362 126.364 14.5362C126.995 14.5362 127.479 14.4555 127.816 14.2941C128.169 14.1327 128.411 13.9272 128.543 13.6778C128.69 13.4137 128.763 13.1495 128.763 12.8854C128.763 12.4159 128.616 12.071 128.323 11.8509C128.029 11.6162 127.662 11.4474 127.222 11.3447C126.782 11.2273 126.312 11.1173 125.814 11.0145C125.329 10.8972 124.838 10.7724 124.339 10.6404C123.84 10.4936 123.385 10.2955 122.974 10.0461C122.563 9.79664 122.233 9.48116 121.984 9.09965C121.734 8.71813 121.61 8.23391 121.61 7.64696C121.61 7.00133 121.778 6.4364 122.116 5.95217C122.453 5.46794 122.937 5.09377 123.568 4.82965C124.214 4.55085 124.992 4.41145 125.902 4.41145C126.914 4.41145 127.758 4.57286 128.433 4.89568C129.122 5.21849 129.643 5.6587 129.995 6.2163C130.348 6.75922 130.546 7.35349 130.59 7.99913H128.411C128.367 7.70566 128.264 7.41952 128.103 7.14073C127.956 6.86193 127.714 6.62715 127.376 6.4364C127.039 6.24564 126.555 6.15026 125.924 6.15026C125.439 6.15026 125.043 6.20896 124.735 6.32635C124.442 6.44374 124.221 6.60514 124.075 6.81057C123.928 7.016 123.855 7.26545 123.855 7.55892C123.855 7.94044 123.979 8.22657 124.229 8.41733C124.478 8.60808 124.823 8.75482 125.263 8.85753C125.703 8.94557 126.188 9.05562 126.716 9.18769Z" fill="black"/>
<path d="M137.948 16.297C136.76 16.297 135.747 16.0402 134.911 15.5267C134.089 15.0131 133.466 14.3088 133.04 13.4137C132.615 12.5039 132.402 11.4768 132.402 10.3322C132.402 9.45181 132.527 8.6521 132.776 7.9331C133.04 7.19942 133.407 6.56846 133.876 6.04021C134.361 5.51197 134.94 5.10844 135.615 4.82965C136.305 4.53618 137.083 4.38944 137.948 4.38944C139.093 4.38944 140.054 4.62422 140.832 5.09377C141.624 5.56332 142.226 6.23097 142.637 7.09671C143.062 7.94777 143.275 8.95291 143.275 10.1121C143.275 10.2589 143.275 10.4129 143.275 10.5743C143.275 10.7211 143.268 10.8385 143.253 10.9265H133.48V9.23171H141.008C141.008 8.7915 140.934 8.38798 140.788 8.02114C140.641 7.63963 140.428 7.30947 140.149 7.03068C139.885 6.75188 139.562 6.53911 139.181 6.39238C138.799 6.23097 138.367 6.15026 137.882 6.15026C137.251 6.15026 136.686 6.28966 136.188 6.56846C135.703 6.84726 135.322 7.23611 135.043 7.73501C134.764 8.23391 134.625 8.82085 134.625 9.49583C134.625 9.73061 134.625 9.96538 134.625 10.2002C134.625 10.4203 134.625 10.6257 134.625 10.8164C134.625 11.4621 134.75 12.0637 134.999 12.6213C135.248 13.1789 135.623 13.6411 136.122 14.0079C136.62 14.3601 137.244 14.5362 137.992 14.5362C138.653 14.5362 139.181 14.4188 139.577 14.184C139.988 13.9492 140.296 13.6778 140.502 13.3696C140.722 13.0468 140.868 12.7607 140.942 12.5112H143.121C142.93 13.2302 142.615 13.8759 142.174 14.4481C141.734 15.0204 141.162 15.4753 140.458 15.8128C139.768 16.1356 138.932 16.297 137.948 16.297Z" fill="black"/>
<path d="M148.551 16.275C147.436 16.275 146.541 15.9815 145.866 15.3946C145.205 14.793 144.875 14.0153 144.875 13.0615C144.875 12.4305 144.985 11.9023 145.205 11.4768C145.44 11.0512 145.763 10.6991 146.174 10.4203C146.585 10.1415 147.076 9.91403 147.649 9.73794C148.236 9.56186 148.874 9.40779 149.563 9.27573C150.004 9.18769 150.4 9.10698 150.752 9.03361C151.104 8.96025 151.405 8.86487 151.654 8.74748C151.904 8.63009 152.087 8.48336 152.205 8.30727C152.337 8.13119 152.403 7.90375 152.403 7.62495C152.403 7.2141 152.249 6.86193 151.941 6.56846C151.647 6.27499 151.09 6.12825 150.268 6.12825C149.285 6.12825 148.61 6.28966 148.243 6.61248C147.876 6.9353 147.663 7.47822 147.605 8.24124H145.404C145.448 7.52224 145.638 6.8766 145.976 6.30434C146.328 5.71739 146.856 5.25518 147.561 4.91769C148.28 4.56552 149.211 4.38944 150.356 4.38944C151.134 4.38944 151.831 4.51417 152.447 4.76362C153.078 4.99839 153.577 5.39458 153.944 5.95217C154.325 6.50977 154.516 7.28013 154.516 8.26325V13.4137C154.516 13.8245 154.552 14.1327 154.626 14.3381C154.699 14.5435 154.839 14.6462 155.044 14.6462C155.073 14.6462 155.11 14.6462 155.154 14.6462C155.198 14.6462 155.249 14.6389 155.308 14.6242V15.9448C155.117 15.9889 154.927 16.0182 154.736 16.0329C154.56 16.0622 154.384 16.0769 154.208 16.0769C153.679 16.0769 153.269 15.9595 152.975 15.7247C152.682 15.4753 152.506 15.0278 152.447 14.3821H152.403C152.021 14.9544 151.508 15.4166 150.862 15.7688C150.231 16.1063 149.461 16.275 148.551 16.275ZM149.035 14.5362C149.681 14.5362 150.253 14.4261 150.752 14.206C151.266 13.9859 151.669 13.6558 151.963 13.2156C152.256 12.7754 152.403 12.2324 152.403 11.5868V9.98006C152.285 10.0828 152.102 10.1855 151.853 10.2882C151.618 10.3762 151.332 10.4643 150.994 10.5523C150.671 10.6257 150.319 10.7064 149.938 10.7944C149.277 10.9265 148.734 11.0879 148.309 11.2787C147.898 11.4547 147.597 11.6749 147.406 11.939C147.23 12.1884 147.142 12.5112 147.142 12.9074C147.142 13.4357 147.289 13.8392 147.583 14.118C147.891 14.3968 148.375 14.5362 149.035 14.5362Z" fill="black"/>
<path d="M157.361 4.7416H159.518V15.9669H157.361V4.7416ZM163.612 6.61248C163.465 6.58313 163.333 6.56846 163.216 6.56846C163.113 6.55379 163.003 6.54645 162.886 6.54645C162.225 6.54645 161.638 6.70052 161.125 7.00867C160.626 7.30214 160.23 7.72033 159.936 8.26325C159.658 8.80617 159.518 9.43714 159.518 10.1561H158.462L157.977 6.8766H159.562C159.856 6.17227 160.237 5.60001 160.707 5.1598C161.191 4.70492 161.815 4.47748 162.578 4.47748C162.783 4.47748 162.966 4.48482 163.128 4.49949C163.289 4.49949 163.451 4.51416 163.612 4.54351V6.61248Z" fill="black"/>
<path d="M172.727 8.81351C172.698 8.432 172.595 8.04315 172.419 7.64696C172.243 7.23611 171.949 6.89128 171.539 6.61248C171.142 6.33368 170.599 6.19428 169.91 6.19428C169.132 6.19428 168.501 6.39971 168.017 6.81057C167.533 7.20676 167.18 7.72033 166.96 8.35129C166.755 8.98226 166.652 9.6499 166.652 10.3542C166.652 11.0586 166.755 11.7262 166.96 12.3572C167.18 12.9881 167.533 13.5017 168.017 13.8979C168.501 14.2941 169.132 14.4922 169.91 14.4922C170.614 14.4922 171.164 14.3601 171.561 14.096C171.957 13.8172 172.243 13.4724 172.419 13.0615C172.595 12.636 172.698 12.2178 172.727 11.8069H174.972C174.928 12.6727 174.686 13.443 174.246 14.118C173.806 14.7783 173.211 15.3066 172.463 15.7027C171.729 16.0989 170.886 16.297 169.932 16.297C168.817 16.297 167.841 16.0476 167.004 15.5487C166.183 15.0351 165.544 14.3381 165.09 13.4577C164.635 12.5626 164.407 11.5281 164.407 10.3542C164.407 9.47382 164.532 8.67411 164.781 7.95511C165.045 7.22143 165.42 6.59047 165.904 6.06222C166.388 5.53398 166.968 5.13045 167.643 4.85166C168.318 4.55819 169.073 4.41145 169.91 4.41145C170.864 4.41145 171.707 4.60221 172.441 4.98372C173.175 5.36523 173.754 5.88614 174.18 6.54645C174.62 7.20676 174.884 7.96245 174.972 8.81351H172.727Z" fill="black"/>
<path d="M177 0.229492H179.157V15.9669H177V0.229492ZM184.462 8.76949C184.462 8.27059 184.381 7.83038 184.219 7.44887C184.073 7.06736 183.831 6.77389 183.493 6.56846C183.17 6.36303 182.737 6.26032 182.194 6.26032C181.725 6.26032 181.299 6.32635 180.918 6.45841C180.551 6.59047 180.236 6.78123 179.971 7.03068C179.707 7.28013 179.502 7.58093 179.355 7.9331C179.223 8.27059 179.157 8.6521 179.157 9.07763H178.409V6.15026H179.201C179.495 5.72473 179.942 5.32855 180.544 4.96171C181.145 4.59487 181.93 4.41145 182.899 4.41145C183.603 4.41145 184.234 4.55085 184.792 4.82965C185.349 5.09377 185.797 5.50463 186.134 6.06222C186.472 6.60514 186.641 7.30947 186.641 8.17521V15.9669H184.462V8.76949Z" fill="black"/>
<path d="M63.1803 27.6193C63.1069 27.2231 62.9822 26.8196 62.8061 26.4088C62.6447 25.9979 62.4026 25.6164 62.0797 25.2642C61.7569 24.8974 61.3387 24.6039 60.8252 24.3838C60.3116 24.1637 59.6733 24.0536 58.9103 24.0536C58.0445 24.0536 57.3035 24.2224 56.6872 24.5599C56.0856 24.8974 55.594 25.3523 55.2125 25.9245C54.831 26.4968 54.5522 27.1498 54.3761 27.8834C54.2001 28.6024 54.112 29.3508 54.112 30.1285C54.112 30.9062 54.2001 31.6619 54.3761 32.3956C54.5522 33.1292 54.831 33.7822 55.2125 34.3545C55.594 34.9267 56.0856 35.3816 56.6872 35.7191C57.3035 36.0566 58.0445 36.2253 58.9103 36.2253C59.9227 36.2253 60.7298 36.0346 61.3314 35.6531C61.9477 35.2569 62.3952 34.758 62.674 34.1564C62.9675 33.5548 63.1362 32.9311 63.1803 32.2855H65.7114C65.5941 33.4447 65.2492 34.4865 64.677 35.411C64.1194 36.3207 63.3563 37.0324 62.3879 37.546C61.4194 38.0595 60.2676 38.3163 58.9323 38.3163C57.4502 38.3163 56.159 37.9642 55.0585 37.2598C53.9579 36.5555 53.1069 35.587 52.5053 34.3545C51.9036 33.1219 51.6028 31.7206 51.6028 30.1505C51.6028 28.9473 51.7716 27.8541 52.1091 26.871C52.4612 25.8732 52.9601 25.0074 53.6058 24.2738C54.2514 23.5401 55.0218 22.9751 55.9169 22.579C56.8266 22.1681 57.8391 21.9627 58.9543 21.9627C60.2896 21.9627 61.4341 22.2121 62.3879 22.711C63.3417 23.2099 64.1047 23.8922 64.677 24.758C65.2492 25.609 65.5941 26.5628 65.7114 27.6193H63.1803Z" fill="black"/>
<path d="M73.1009 38.3383C71.927 38.3383 70.9219 38.0889 70.0855 37.59C69.2491 37.0764 68.6035 36.3721 68.1486 35.477C67.7084 34.5819 67.4883 33.5548 67.4883 32.3956C67.4883 31.5151 67.613 30.7154 67.8624 29.9964C68.1119 29.2628 68.4787 28.6318 68.963 28.1035C69.4619 27.5606 70.0561 27.1498 70.7458 26.871C71.4501 26.5775 72.2352 26.4308 73.1009 26.4308C74.2748 26.4308 75.2726 26.6876 76.0943 27.2011C76.9307 27.7 77.5763 28.397 78.0312 29.2921C78.4861 30.1725 78.7135 31.1997 78.7135 32.3735C78.7135 33.2686 78.5815 34.083 78.3173 34.8167C78.0679 35.5357 77.6937 36.1593 77.1948 36.6876C76.7106 37.2158 76.1236 37.6267 75.434 37.9201C74.7443 38.1989 73.9666 38.3383 73.1009 38.3383ZM73.1009 36.5555C73.6878 36.5555 74.1867 36.4528 74.5976 36.2474C75.0231 36.0419 75.368 35.7485 75.6321 35.3669C75.9109 34.9708 76.1163 34.5232 76.2484 34.0243C76.3951 33.5254 76.4685 32.9825 76.4685 32.3956C76.4685 31.6032 76.3437 30.8989 76.0943 30.2826C75.8595 29.6516 75.4927 29.1527 74.9938 28.7859C74.4949 28.419 73.8639 28.2356 73.1009 28.2356C72.5286 28.2356 72.0297 28.3383 71.6042 28.5438C71.1787 28.7492 70.8265 29.0427 70.5477 29.4242C70.2689 29.8057 70.0635 30.2532 69.9314 30.7668C69.7993 31.2657 69.7333 31.8086 69.7333 32.3956C69.7333 33.1733 69.8507 33.8776 70.0855 34.5085C70.3203 35.1395 70.6871 35.6384 71.186 36.0052C71.6996 36.3721 72.3379 36.5555 73.1009 36.5555Z" fill="black"/>
<path d="M90.3424 26.7829V38.0082H88.1853V26.7829H90.3424ZM82.8809 33.9583C82.8809 34.4572 82.9542 34.8974 83.101 35.2789C83.2624 35.6604 83.5045 35.9612 83.8273 36.1813C84.1648 36.3868 84.605 36.4895 85.1479 36.4895C85.6175 36.4895 86.0357 36.4234 86.4025 36.2914C86.784 36.1593 87.1068 35.9686 87.371 35.7191C87.6351 35.455 87.8332 35.1542 87.9652 34.8167C88.112 34.4792 88.1853 34.0977 88.1853 33.6722H88.2294V36.5995H88.1413C87.8479 37.0251 87.4003 37.4212 86.7987 37.7881C86.1971 38.1402 85.412 38.3163 84.4436 38.3163C83.7539 38.3163 83.123 38.1843 82.5507 37.9201C81.9931 37.656 81.5456 37.2452 81.2081 36.6876C80.8706 36.1153 80.7018 35.4036 80.7018 34.5526V26.7829H82.8809V33.9583Z" fill="black"/>
<path d="M93.0709 38.0082V26.7829H95.2279V38.0082H93.0709ZM100.532 30.8108C100.532 30.3119 100.452 29.8717 100.29 29.4902C100.144 29.1087 99.9015 28.8152 99.564 28.6098C99.2412 28.4044 98.8083 28.3016 98.2654 28.3016C97.7958 28.3016 97.3703 28.3677 96.9888 28.4997C96.6219 28.6318 96.3065 28.8225 96.0423 29.072C95.7782 29.3214 95.5728 29.6223 95.426 29.9744C95.294 30.3119 95.2279 30.6934 95.2279 31.119H94.4796V28.1916H95.272C95.5654 27.7661 96.013 27.3699 96.6146 27.003C97.2162 26.6362 98.0013 26.4528 98.9697 26.4528C99.674 26.4528 100.305 26.5922 100.863 26.871C101.42 27.1351 101.868 27.546 102.205 28.1035C102.543 28.6465 102.711 29.3508 102.711 30.2165V38.0082H100.532V30.8108Z" fill="black"/>
<path d="M113.037 30.8548C113.007 30.4733 112.905 30.0845 112.729 29.6883C112.552 29.2774 112.259 28.9326 111.848 28.6538C111.452 28.375 110.909 28.2356 110.219 28.2356C109.442 28.2356 108.811 28.441 108.326 28.8519C107.842 29.2481 107.49 29.7617 107.27 30.3926C107.065 31.0236 106.962 31.6912 106.962 32.3956C106.962 33.0999 107.065 33.7675 107.27 34.3985C107.49 35.0295 107.842 35.543 108.326 35.9392C108.811 36.3354 109.442 36.5335 110.219 36.5335C110.924 36.5335 111.474 36.4014 111.87 36.1373C112.266 35.8585 112.552 35.5137 112.729 35.1028C112.905 34.6773 113.007 34.2591 113.037 33.8482H115.282C115.238 34.714 114.996 35.4843 114.555 36.1593C114.115 36.8196 113.521 37.3479 112.773 37.7441C112.039 38.1402 111.195 38.3383 110.241 38.3383C109.126 38.3383 108.15 38.0889 107.314 37.59C106.492 37.0764 105.854 36.3794 105.399 35.499C104.944 34.6039 104.717 33.5694 104.717 32.3956C104.717 31.5151 104.842 30.7154 105.091 29.9964C105.355 29.2628 105.729 28.6318 106.214 28.1035C106.698 27.5753 107.277 27.1718 107.952 26.893C108.627 26.5995 109.383 26.4528 110.219 26.4528C111.173 26.4528 112.017 26.6435 112.751 27.025C113.484 27.4066 114.064 27.9275 114.489 28.5878C114.93 29.2481 115.194 30.0038 115.282 30.8548H113.037Z" fill="black"/>
<path d="M117.266 38.0082V26.7829H119.423V38.0082H117.266ZM117.068 23.6575C117.068 23.32 117.178 23.0265 117.398 22.7771C117.618 22.5276 117.933 22.4029 118.344 22.4029C118.755 22.4029 119.07 22.5276 119.291 22.7771C119.511 23.0265 119.621 23.32 119.621 23.6575C119.621 23.995 119.511 24.2884 119.291 24.5379C119.07 24.7873 118.755 24.9121 118.344 24.9121C117.933 24.9121 117.618 24.7873 117.398 24.5379C117.178 24.2884 117.068 23.995 117.068 23.6575Z" fill="black"/>
<path d="M122.196 22.2708H124.353V38.0082H122.196V22.2708Z" fill="black"/>
<path d="M137.226 38.3383C136.052 38.3383 135.047 38.0889 134.211 37.59C133.375 37.0764 132.729 36.3721 132.274 35.477C131.834 34.5819 131.614 33.5548 131.614 32.3956C131.614 31.5151 131.738 30.7154 131.988 29.9964C132.237 29.2628 132.604 28.6318 133.088 28.1035C133.587 27.5606 134.182 27.1498 134.871 26.871C135.576 26.5775 136.361 26.4308 137.226 26.4308C138.4 26.4308 139.398 26.6876 140.22 27.2011C141.056 27.7 141.702 28.397 142.157 29.2921C142.612 30.1725 142.839 31.1997 142.839 32.3735C142.839 33.2686 142.707 34.083 142.443 34.8167C142.193 35.5357 141.819 36.1593 141.32 36.6876C140.836 37.2158 140.249 37.6267 139.559 37.9201C138.87 38.1989 138.092 38.3383 137.226 38.3383ZM137.226 36.5555C137.813 36.5555 138.312 36.4528 138.723 36.2474C139.149 36.0419 139.493 35.7485 139.758 35.3669C140.036 34.9708 140.242 34.5232 140.374 34.0243C140.521 33.5254 140.594 32.9825 140.594 32.3956C140.594 31.6032 140.469 30.8989 140.22 30.2826C139.985 29.6516 139.618 29.1527 139.119 28.7859C138.62 28.419 137.989 28.2356 137.226 28.2356C136.654 28.2356 136.155 28.3383 135.73 28.5438C135.304 28.7492 134.952 29.0427 134.673 29.4242C134.394 29.8057 134.189 30.2532 134.057 30.7668C133.925 31.2657 133.859 31.8086 133.859 32.3956C133.859 33.1733 133.976 33.8776 134.211 34.5085C134.446 35.1395 134.813 35.6384 135.311 36.0052C135.825 36.3721 136.463 36.5555 137.226 36.5555Z" fill="black"/>
<path d="M143.824 26.7829H149.635V28.5658H143.824V26.7829ZM147.522 38.0082H145.365V25.4183C145.365 24.5525 145.482 23.8849 145.717 23.4154C145.952 22.9311 146.282 22.5936 146.707 22.4029C147.148 22.2121 147.669 22.1167 148.27 22.1167C148.476 22.1167 148.674 22.1314 148.864 22.1608C149.07 22.1754 149.327 22.2048 149.635 22.2488V23.9876C149.415 23.9583 149.246 23.9436 149.129 23.9436C149.011 23.9289 148.872 23.9216 148.71 23.9216C148.417 23.9216 148.182 23.9583 148.006 24.0316C147.83 24.105 147.705 24.2517 147.632 24.4718C147.559 24.6773 147.522 24.9781 147.522 25.3743V38.0082Z" fill="black"/>
<path d="M157.038 38.0082V22.2708H159.811L167.119 34.3765H167.163V22.2708H169.606V38.0082H166.832L159.503 25.9025H159.459V38.0082H157.038Z" fill="black"/>
<path d="M177.407 38.3383C176.233 38.3383 175.228 38.0889 174.391 37.59C173.555 37.0764 172.909 36.3721 172.455 35.477C172.014 34.5819 171.794 33.5548 171.794 32.3956C171.794 31.5151 171.919 30.7154 172.168 29.9964C172.418 29.2628 172.785 28.6318 173.269 28.1035C173.768 27.5606 174.362 27.1498 175.052 26.871C175.756 26.5775 176.541 26.4308 177.407 26.4308C178.581 26.4308 179.579 26.6876 180.4 27.2011C181.237 27.7 181.882 28.397 182.337 29.2921C182.792 30.1725 183.019 31.1997 183.019 32.3735C183.019 33.2686 182.887 34.083 182.623 34.8167C182.374 35.5357 182 36.1593 181.501 36.6876C181.017 37.2158 180.43 37.6267 179.74 37.9201C179.05 38.1989 178.273 38.3383 177.407 38.3383ZM177.407 36.5555C177.994 36.5555 178.493 36.4528 178.904 36.2474C179.329 36.0419 179.674 35.7485 179.938 35.3669C180.217 34.9708 180.422 34.5232 180.554 34.0243C180.701 33.5254 180.774 32.9825 180.774 32.3956C180.774 31.6032 180.65 30.8989 180.4 30.2826C180.165 29.6516 179.799 29.1527 179.3 28.7859C178.801 28.419 178.17 28.2356 177.407 28.2356C176.835 28.2356 176.336 28.3383 175.91 28.5438C175.485 28.7492 175.132 29.0427 174.854 29.4242C174.575 29.8057 174.369 30.2532 174.237 30.7668C174.105 31.2657 174.039 31.8086 174.039 32.3956C174.039 33.1733 174.157 33.8776 174.391 34.5085C174.626 35.1395 174.993 35.6384 175.492 36.0052C176.006 36.3721 176.644 36.5555 177.407 36.5555Z" fill="black"/>
<path d="M185.118 26.7829H187.275V38.0082H185.118V26.7829ZM191.369 28.6538C191.222 28.6245 191.09 28.6098 190.973 28.6098C190.87 28.5951 190.76 28.5878 190.642 28.5878C189.982 28.5878 189.395 28.7418 188.882 29.05C188.383 29.3435 187.987 29.7617 187.693 30.3046C187.414 30.8475 187.275 31.4785 187.275 32.1975H186.218L185.734 28.9179H187.319C187.612 28.2136 187.994 27.6413 188.463 27.2011C188.948 26.7462 189.571 26.5188 190.334 26.5188C190.54 26.5188 190.723 26.5261 190.885 26.5408C191.046 26.5408 191.207 26.5555 191.369 26.5848V28.6538Z" fill="black"/>
<path d="M192.37 26.7829H194.703L197.08 35.477H197.124L199.457 26.7829H201.636L203.969 35.477H204.035L206.412 26.7829H208.679L205.18 38.0082H202.957L200.535 29.3581H200.491L198.07 38.0082H195.847L192.37 26.7829Z" fill="black"/>
<path d="M212.913 38.3163C211.798 38.3163 210.903 38.0229 210.228 37.4359C209.567 36.8343 209.237 36.0566 209.237 35.1028C209.237 34.4719 209.347 33.9436 209.567 33.5181C209.802 33.0925 210.125 32.7404 210.536 32.4616C210.947 32.1828 211.438 31.9553 212.01 31.7793C212.597 31.6032 213.236 31.4491 213.925 31.3171C214.366 31.229 214.762 31.1483 215.114 31.0749C215.466 31.0016 215.767 30.9062 216.016 30.7888C216.266 30.6714 216.449 30.5247 216.567 30.3486C216.699 30.1725 216.765 29.9451 216.765 29.6663C216.765 29.2554 216.611 28.9033 216.303 28.6098C216.009 28.3163 215.451 28.1696 214.63 28.1696C213.647 28.1696 212.972 28.331 212.605 28.6538C212.238 28.9766 212.025 29.5195 211.966 30.2826H209.765C209.809 29.5636 210 28.9179 210.338 28.3457C210.69 27.7587 211.218 27.2965 211.922 26.959C212.641 26.6068 213.573 26.4308 214.718 26.4308C215.495 26.4308 216.192 26.5555 216.809 26.8049C217.44 27.0397 217.939 27.4359 218.305 27.9935C218.687 28.5511 218.878 29.3214 218.878 30.3046V35.455C218.878 35.8658 218.914 36.174 218.988 36.3794C219.061 36.5848 219.201 36.6876 219.406 36.6876C219.435 36.6876 219.472 36.6876 219.516 36.6876C219.56 36.6876 219.611 36.6802 219.67 36.6656V37.9862C219.479 38.0302 219.289 38.0595 219.098 38.0742C218.922 38.1036 218.746 38.1182 218.57 38.1182C218.041 38.1182 217.63 38.0008 217.337 37.7661C217.044 37.5166 216.867 37.0691 216.809 36.4234H216.765C216.383 36.9957 215.87 37.4579 215.224 37.8101C214.593 38.1476 213.823 38.3163 212.913 38.3163ZM213.397 36.5775C214.043 36.5775 214.615 36.4675 215.114 36.2474C215.628 36.0273 216.031 35.6971 216.325 35.2569C216.618 34.8167 216.765 34.2738 216.765 33.6281V32.0214C216.647 32.1241 216.464 32.2268 216.214 32.3295C215.98 32.4176 215.694 32.5056 215.356 32.5936C215.033 32.667 214.681 32.7477 214.3 32.8358C213.639 32.9678 213.096 33.1292 212.671 33.32C212.26 33.4961 211.959 33.7162 211.768 33.9803C211.592 34.2297 211.504 34.5526 211.504 34.9488C211.504 35.477 211.651 35.8805 211.944 36.1593C212.253 36.4381 212.737 36.5775 213.397 36.5775Z" fill="black"/>
<path d="M224.514 37.8981L219.958 26.7829H222.313L225.593 35.3669H225.637L228.74 26.7829H230.985L226.561 38.2723C226.195 39.1821 225.82 39.9084 225.439 40.4513C225.057 40.9942 224.639 41.3758 224.184 41.5959C223.744 41.8306 223.23 41.948 222.644 41.948C222.409 41.948 222.189 41.9334 221.983 41.904C221.778 41.8893 221.536 41.8526 221.257 41.794V40.0331C221.448 40.0478 221.609 40.0625 221.741 40.0772C221.873 40.0918 222.02 40.0992 222.181 40.0992C222.475 40.0992 222.768 40.0331 223.062 39.9011C223.37 39.7837 223.649 39.5636 223.898 39.2408C224.148 38.9326 224.353 38.4851 224.514 37.8981Z" fill="black"/>
</svg>
